<?xml version="1.0" standalone="no"?><!DOCTYPE svg PUBLIC "-//W3C//DTD SVG 1.1//EN" "http://www.w3.org/Graphics/SVG/1.1/DTD/svg11.dtd"><svg t="1749733592961" class="icon" viewBox="0 0 1024 1024" version="1.1" xmlns="http://www.w3.org/2000/svg" p-id="12497" xmlns:xlink="http://www.w3.org/1999/xlink" width="200" height="200"><path d="M204.8 51.2c202.496 118.1696 326.2976 253.0304 371.3024 404.736 45.056 151.552 62.0544 298.24 51.0976 440.064h44.1344c-14.336-85.76-1.6896-177.152 38.144-274.176 39.7824-96.9728 110.1824-184.832 211.2-263.424-42.9056 118.4256-68.5056 220.8256-76.8 307.2-8.3456 86.4256 4.4544 163.2256 38.4 230.4h52.1216a38.4 38.4 0 1 1 0 76.8H89.6a38.4 38.4 0 1 1 0-76.8h38.4c33.8944-67.2256 46.6944-144.0256 38.4-230.4-8.2944-86.4256-33.8944-188.7744-76.8-307.2 101.0176 78.592 171.4176 166.4 211.2 263.424 39.7824 97.024 52.48 188.416 38.144 274.176H358.4c45.9776-127.3856 55.04-264.7552 27.2384-412.16C357.888 336.384 297.6256 192.1536 204.8 51.2z m576 76.8c-87.3472 96.9728-141.5168 208.7424-162.6624 335.1552l-5.1712-18.176c-17.152-57.8048-44.9536-113.408-83.6096-166.8608 44.9024-88.9344 128.7168-139.008 251.4432-150.1184z" p-id="12498" fill="#ffffff"></path></svg>